IKResults
version=1
nRows=17
nColumns=40
inDegrees=yes

Units are S.I. units (second, meters, Newtons, ...)
If the header above contains a line with 'inDegrees', this indicates whether rotational values are in degrees (yes) or radians (no).

endheader
time	pelvis_tilt	pelvis_list	pelvis_rotation	pelvis_tx	pelvis_ty	pelvis_tz	hip_flexion_r	hip_adduction_r	hip_rotation_r	knee_angle_r	knee_angle_r_beta	ankle_angle_r	subtalar_angle_r	mtp_angle_r	hip_flexion_l	hip_adduction_l	hip_rotation_l	knee_angle_l	knee_angle_l_beta	ankle_angle_l	subtalar_angle_l	mtp_angle_l	lumbar_extension	lumbar_bending	lumbar_rotation	arm_flex_r	arm_add_r	arm_rot_r	elbow_flex_r	pro_sup_r	wrist_flex_r	wrist_dev_r	arm_flex_l	arm_add_l	arm_rot_l	elbow_flex_l	pro_sup_l	wrist_flex_l	wrist_dev_l
      2.07000000	      0.09558202	      2.79199664	      9.18892643	     -0.12851582	      1.01837377	      0.24931256	     28.90772842	     -8.70338625	    -12.00240240	      4.05752115	      0.07081710	      8.26527587	      9.55168860	      0.00000000	    -14.25173648	      3.69844962	     18.53822994	     12.90927827	      0.22530941	     20.34932273	      0.73109665	      0.00000000	    -17.26143474	     -0.59536117	    -11.59327943	    -17.88609742	    -10.60022314	     10.99293819	     32.82766643	     77.34815248	      0.00000000	      0.00000000	      2.87914605	    -17.02583103	     -3.08304586	     72.04390224	     68.94330579	      0.00000000	      0.00000000
      2.08000000	      0.11953892	      2.72794800	      9.54266052	     -0.11328546	      1.01543239	      0.24978186	     29.26521283	     -8.82885922	    -12.68958245	      4.66114082	      0.08135225	      8.61111276	      9.72276872	      0.00000000	    -14.83656311	      3.32683006	     18.27641021	     13.54551763	      0.23641388	     20.85835004	      1.61936164	      0.00000000	    -17.14728009	     -0.28547825	    -11.78249426	    -17.83964770	    -10.55930120	     10.98945347	     32.59170832	     78.10155712	      0.00000000	      0.00000000	      2.56609574	    -16.98618827	     -2.99526839	     71.68470781	     68.65813258	      0.00000000	      0.00000000
      2.09000000	      0.29916810	      2.71398254	      9.79215716	     -0.09766846	      1.01282800	      0.25036859	     29.46643548	     -8.93875602	    -12.92371523	      5.66727040	      0.09891253	      8.67081718	      9.38689539	      0.00000000	    -15.61748693	      3.05157205	     18.30178481	     14.18590903	      0.24759082	     20.93688208	      1.66971512	      0.00000000	    -17.18037874	     -0.02871442	    -11.87380821	    -17.77950832	    -10.50833192	     11.02387501	     32.41859244	     78.14543629	      0.00000000	      0.00000000	      2.22552366	    -16.73147191	     -3.18699594	     71.17943627	     68.62021918	      0.00000000	      0.00000000
      2.10000000	      0.18753990	      2.61031487	     10.44265636	     -0.08197133	      1.00983233	      0.25039817	     29.99386569	     -9.24896533	    -13.47396834	      7.22862781	      0.12616336	      8.97566586	      8.75410975	      0.00000000	    -15.82209466	      2.63121689	     18.35886830	     15.26664769	      0.26645327	     21.33867034	      2.31999490	      0.00000000	    -16.84272958	      0.37315375	    -12.46731604	    -17.65535301	    -10.51192809	     11.20179328	     32.15872490	     78.39545440	      0.00000000	      0.00000000	      1.59822665	    -16.56872952	     -3.26788653	     70.75872274	     68.50159582	      0.00000000	      0.00000000
      2.11000000	      0.09541293	      2.62978764	     10.81792714	     -0.06613185	      1.00697061	      0.25092358	     30.58058051	     -9.56864904	    -13.77544126	      9.16425836	      0.15994648	      9.19846593	      8.38426933	      0.00000000	    -16.03255078	      2.37702950	     18.07723085	     16.40181206	      0.28626562	     21.45765288	      3.01390011	      0.00000000	    -16.55036984	      0.56625308	    -12.81801912	    -17.55714085	    -10.46489309	     11.15523125	     32.01495924	     78.61200774	      0.00000000	      0.00000000	      1.02520839	    -16.41231653	     -3.37391080	     70.08652043	     68.43519799	      0.00000000	      0.00000000
      2.12000000	      0.39087232	      2.51353606	     11.06495207	     -0.04950647	      1.00494053	      0.25168644	     30.57595507	     -9.57878433	    -13.83275675	     11.04913585	      0.19284380	      9.02838054	      8.15734570	      0.00000000	    -16.76567504	      1.92338644	     17.92564049	     17.30833072	      0.30208736	     21.08277514	      3.16638621	      0.00000000	    -16.59136076	      0.94765011	    -12.98671649	    -17.45256802	    -10.44385669	     11.07690442	     31.90413967	     78.63770502	      0.00000000	      0.00000000	      0.48373228	    -16.19357763	     -3.54037987	     69.17723925	     68.41650473	      0.00000000	      0.00000000
      2.13000000	      0.08234110	      2.23366271	     11.63498930	     -0.03325739	      1.00211813	      0.25207876	     31.39375100	     -9.73620755	    -14.21585470	     13.43564818	      0.23449630	      8.30189703	      7.39790480	      0.00000000	    -16.43173363	      1.32328104	     17.50482149	     18.86224972	      0.32920836	     21.29201279	      4.24243806	      0.00000000	    -15.93270439	      1.45977113	    -13.44349615	    -17.42898692	    -10.41736058	     10.77025007	     31.88099613	     78.80773515	      0.00000000	      0.00000000	     -0.19025025	    -15.95394560	     -3.52565110	     68.13331652	     68.62066455	      0.00000000	      0.00000000
      2.14000000	     -0.10361405	      2.06023735	     12.00097984	     -0.01677127	      0.99973455	      0.25306262	     31.81659842	     -9.66755467	    -14.00547853	     15.10908640	      0.26370330	      6.72253516	      6.03989825	      0.00000000	    -16.17852542	      0.74242903	     16.46509690	     20.46660029	      0.35720956	     21.23011080	      5.82380568	      0.00000000	    -15.43149088	      1.79882174	    -13.77741876	    -17.32985683	    -10.33159005	     10.43166041	     31.81952623	     79.05409970	      0.00000000	      0.00000000	     -0.88467635	    -15.71008669	     -3.65023492	     66.97642048	     68.93517730	      0.00000000	      0.00000000
      2.15000000	     -0.17235485	      1.69696178	     12.34585695	      0.00006136	      0.99784692	      0.25416078	     31.89021549	     -9.32037232	    -14.02659200	     16.24667920	      0.28355804	      4.57651032	      5.10647324	      0.00000000	    -16.01174140	     -0.02390880	     15.71182780	     22.05520382	      0.38493592	     20.74753811	      6.76856668	      0.00000000	    -14.98318548	      2.36517750	    -13.98290579	    -17.25690931	    -10.28474869	     10.07318807	     31.80858527	     79.13244347	      0.00000000	      0.00000000	     -1.54411897	    -15.41956038	     -3.58296411	     65.60819368	     68.99920923	      0.00000000	      0.00000000
      2.16000000	     -0.22340432	      1.31308849	     12.65954721	      0.01686916	      0.99634659	      0.25544783	     31.82973408	     -8.86558434	    -13.83489274	     17.14673865	      0.29926705	      2.05170398	      3.84064470	      0.00000000	    -15.71196743	     -0.85068883	     14.76692563	     23.80419125	      0.41546151	     20.05346303	      7.90188954	      0.00000000	    -14.56200497	      2.93817208	    -14.17169904	    -17.11269070	    -10.22304384	      9.72743175	     31.79729726	     79.11989663	      0.00000000	      0.00000000	     -2.10727960	    -15.12667903	     -3.56166609	     63.98090022	     69.31509073	      0.00000000	      0.00000000
      2.17000000	     -0.19147829	      0.81209216	     12.85489170	      0.03399153	      0.99534899	      0.25713845	     31.71818383	     -8.17048506	    -13.30461731	     18.22284886	      0.31804871	      0.02294523	      2.09971549	      0.00000000	    -15.36769153	     -1.88939412	     13.40367399	     25.66494579	      0.44793781	     19.12974123	      9.39929423	      0.00000000	    -14.19222985	      3.61269862	    -14.23622014	    -16.94478637	    -10.18875246	      9.45520589	     31.81973630	     79.00783140	      0.00000000	      0.00000000	     -2.70032899	    -14.78812427	     -3.54402183	     62.20167114	     69.78012447	      0.00000000	      0.00000000
      2.18000000	      0.20964556	      0.66552053	     12.92258105	      0.05128361	      0.99565293	      0.25845574	     31.26644815	     -7.92117854	    -13.14371057	     19.75332748	      0.34476060	     -0.81290338	      2.07822962	      0.00000000	    -15.59287157	     -2.42052059	     12.74825744	     27.26948694	      0.47594233	     17.27007206	      9.56661446	      0.00000000	    -14.32497103	      4.01292242	    -14.34396139	    -16.59865454	    -10.22062073	      9.36133024	     31.80616411	     78.96497992	      0.00000000	      0.00000000	     -3.34002419	    -14.39323550	     -3.65138974	     60.54098669	     69.77558934	      0.00000000	      0.00000000
      2.19000000	     -0.12785590	     -0.19351886	     13.05197863	      0.06812470	      0.99499442	      0.26017759	     31.83823243	     -7.08302885	    -13.08870936	     21.45493967	      0.37445934	     -1.88226425	      0.16066404	      0.00000000	    -14.18141920	     -3.81327002	     10.80848136	     29.99738748	      0.52355318	     15.91345095	     11.04173549	      0.00000000	    -13.48147999	      4.98793354	    -14.03434631	    -16.49381256	    -10.27699579	      9.03273599	     31.79374293	     78.62230374	      0.00000000	      0.00000000	     -3.61572350	    -13.84958525	     -3.32968290	     58.02079860	     70.60681140	      0.00000000	      0.00000000
      2.20000000	      0.41292924	     -0.40511881	     12.95885674	      0.08524707	      0.99672601	      0.26178559	     31.34504742	     -6.71384208	    -13.02360426	     23.29480930	      0.40657112	     -1.95137557	     -0.01809155	      0.00000000	    -14.11586612	     -4.46027298	      9.71375803	     32.09946662	      0.56024138	     13.22772212	     11.16477006	      0.00000000	    -13.80178798	      5.46648612	    -13.96983341	    -15.98622939	    -10.35024534	      8.97943751	     31.81193786	     78.58426050	      0.00000000	      0.00000000	     -4.19151110	    -13.29581663	     -3.51803854	     55.99387697	     70.56597995	      0.00000000	      0.00000000
      2.21000000	     -0.19540528	     -1.41253128	     12.68299599	      0.10168636	      0.99667220	      0.26404064	     32.22357882	     -5.72911100	    -13.23584521	     24.99533799	      0.43625095	     -2.07156487	     -0.60090250	      0.00000000	    -11.98914635	     -5.97103995	      7.43108334	     35.30966435	      0.61626990	     10.65669298	     12.29696386	      0.00000000	    -12.71255002	      6.48288852	    -13.25553583	    -15.84457361	    -10.47768504	      8.58663902	     32.00268169	     78.28790184	      0.00000000	      0.00000000	     -4.34617211	    -12.63914613	     -3.29106894	     53.10227813	     71.86281443	      0.00000000	      0.00000000
      2.22000000	     -0.05735267	     -1.98110558	     12.15855189	      0.11883093	      0.99866243	      0.26604567	     31.92749981	     -4.90559152	    -13.29461739	     26.25707088	      0.45827234	     -1.91139908	     -0.36953656	      0.00000000	    -10.92580657	     -6.92678785	      5.70324395	     38.07524317	      0.66453836	      6.94678323	     11.87418467	      0.00000000	    -12.55812228	      7.19682657	    -12.52588658	    -15.48839710	    -10.70661634	      8.44971030	     32.13518797	     78.25191084	      0.00000000	      0.00000000	     -4.67822615	    -11.82690857	     -3.65936767	     50.67876752	     72.19206768	      0.00000000	      0.00000000
      2.23000000	     -0.17877736	     -2.64870044	     11.85360976	      0.13530151	      1.00051022	      0.26792665	     31.74707658	     -4.09379873	    -13.60615169	     27.19281155	      0.47460409	     -1.64955367	     -0.19671476	      0.00000000	     -9.16381057	     -8.09150653	      4.05387488	     41.26308467	      0.72017669	      2.89979049	     11.22455019	      0.00000000	    -12.13473082	      7.99515412	    -12.00571033	    -15.17975724	    -10.89998320	      8.00366492	     32.51551732	     78.49133670	      0.00000000	      0.00000000	     -5.16507087	    -11.03547513	     -4.13947945	     47.97786086	     75.95804535	      0.00000000	      0.00000000
